<?xml version="1.0" encoding="UTF-8"?>
<svg id="Layer_1" data-name="Layer 1" xmlns="http://www.w3.org/2000/svg" version="1.1" viewBox="0 0 256 256">
  <path d="M128,252c-68.4,0-124-55.6-124-124S59.6,4,128,4s124,55.6,124,124-55.6,124-124,124Z" fill="#fff" stroke-width="0"/>
  <path d="M128,8c32.1,0,62.2,12.5,84.9,35.1,22.7,22.7,35.1,52.8,35.1,84.9s-12.5,62.2-35.1,84.9c-22.7,22.7-52.8,35.1-84.9,35.1s-62.2-12.5-84.9-35.1c-22.7-22.7-35.1-52.8-35.1-84.9s12.5-62.2,35.1-84.9c22.7-22.7,52.8-35.1,84.9-35.1M128,0C57.3,0,0,57.3,0,128s57.3,128,128,128,128-57.3,128-128S198.7,0,128,0h0Z" fill="#c8c8c8" stroke-width="0"/>
</svg>