<?xml version="1.0" encoding="UTF-8"?>
<svg id="Layer_1" data-name="Layer 1" xmlns="http://www.w3.org/2000/svg" version="1.1" viewBox="0 0 512 512">
  <g>
    <line y1="87.7" fill="none" stroke-width="0"/>
    <rect width="512" height="87.2" fill="#000" stroke-width="0"/>
    <path d="M69.8,58.5c-5.7,1.5-11.4,2.7-19.9,2.7s-15.2-6.9-15.2-16.9,4.8-17,19.6-17,10.1,1.1,15.2,2.7l-2.1-19.3c-6.1-1-12.4-1.9-17.4-1.9-20.9,0-41,10.2-41,35.6s20.2,35.5,41,35.5,12-.9,18-1.3l1.9-19.9" fill="#fff" fill-rule="evenodd" stroke-width="0"/>
    <path d="M69.8,58.5c-5.7,1.5-11.4,2.7-19.9,2.7s-15.2-6.9-15.2-16.9,4.8-17,19.6-17,10.1,1.1,15.2,2.7l-2.1-19.3c-6.1-1-12.4-1.9-17.4-1.9-20.9,0-41,10.2-41,35.6s20.2,35.5,41,35.5,12-.9,18-1.3l1.9-19.9Z" fill="#fff" fill-rule="evenodd" stroke-width="0"/>
    <path d="M69.8,58.5c-5.7,1.5-11.4,2.7-19.9,2.7s-15.2-6.9-15.2-16.9,4.8-17,19.6-17,10.1,1.1,15.2,2.7l-2.1-19.3c-6.1-1-12.4-1.9-17.4-1.9-20.9,0-41,10.2-41,35.6s20.2,35.5,41,35.5,12-.9,18-1.3l1.9-19.9Z" fill="none" stroke="#000" stroke-linecap="round" stroke-linejoin="round" stroke-width=".2"/>
    <path d="M69.8,58.5c-5.7,1.5-11.4,2.7-19.9,2.7s-15.2-6.9-15.2-16.9,4.8-17,19.6-17,10.1,1.1,15.2,2.7l-2.1-19.3c-6.1-1-12.4-1.9-17.4-1.9-20.9,0-41,10.2-41,35.6s20.2,35.5,41,35.5,12-.9,18-1.3l1.9-19.9Z" fill="none" stroke="#000" stroke-linecap="round" stroke-linejoin="round" stroke-width=".2"/>
    <polyline points="73.9 78.8 128.9 78.8 128.9 60.9 99.7 60.9 99.7 10.5 73.9 10.5 73.9 78.8" fill="#fff" fill-rule="evenodd" stroke-width="0"/>
    <polygon points="73.9 78.8 128.9 78.8 128.9 60.9 99.7 60.9 99.7 10.5 73.9 10.5 73.9 78.8" fill="#fff" fill-rule="evenodd" stroke-width="0"/>
    <polygon points="73.9 78.8 128.9 78.8 128.9 60.9 99.7 60.9 99.7 10.5 73.9 10.5 73.9 78.8" fill="none" stroke="#000" stroke-linecap="round" stroke-linejoin="round" stroke-width=".2"/>
    <polygon points="73.9 78.8 128.9 78.8 128.9 60.9 99.7 60.9 99.7 10.5 73.9 10.5 73.9 78.8" fill="none" stroke="#000" stroke-linecap="round" stroke-linejoin="round" stroke-width=".2"/>
    <path d="M132.6,9.5v48.6c0,10.7,10.4,21.1,34.5,21.1s34.5-10.5,34.5-21.1V9.5h-25.8v37.8c0,7.4-1.5,12.4-8.8,12.4s-8.8-5-8.8-12.4V9.5h-25.8" fill="#fff" fill-rule="evenodd" stroke-width="0"/>
    <path d="M132.6,9.5v48.6c0,10.7,10.4,21.1,34.5,21.1s34.5-10.5,34.5-21.1V9.5h-25.8v37.8c0,7.4-1.5,12.4-8.8,12.4s-8.8-5-8.8-12.4V9.5h-25.8Z" fill="#fff" fill-rule="evenodd" stroke-width="0"/>
    <path d="M132.6,9.5v48.6c0,10.7,10.4,21.1,34.5,21.1s34.5-10.5,34.5-21.1V9.5h-25.8v37.8c0,7.4-1.5,12.4-8.8,12.4s-8.8-5-8.8-12.4V9.5h-25.8Z" fill="none" stroke="#000" stroke-linecap="round" stroke-linejoin="round" stroke-width=".2"/>
    <path d="M132.6,9.5v48.6c0,10.7,10.4,21.1,34.5,21.1s34.5-10.5,34.5-21.1V9.5h-25.8v37.8c0,7.4-1.5,12.4-8.8,12.4s-8.8-5-8.8-12.4V9.5h-25.8Z" fill="none" stroke="#000" stroke-linecap="round" stroke-linejoin="round" stroke-width=".2"/>
    <path d="M204.8,77.8h43c15.1,0,21.3-7.8,21.3-17.8s-6-16.4-14.2-16.9v-.2c8-1.6,11.8-8.2,11.8-15.5,0-12.9-9.2-17.9-18.7-17.9h-43.3v68.4M228.6,25.9h8c3,0,5.7,1.4,5.7,4.9s-1.4,4.2-6.3,4.2h-7.4v-9.1ZM228.6,51.4h9.9c3.7,0,6.1.8,6.1,4.6s-1.4,5.4-6.9,5.4h-9.1v-10Z" fill="#fff" fill-rule="evenodd" stroke-width="0"/>
    <path d="M204.8,77.8h43c15.1,0,21.3-7.8,21.3-17.8s-6-16.4-14.2-16.9v-.2c8-1.6,11.8-8.2,11.8-15.5,0-12.9-9.2-17.9-18.7-17.9h-43.3v68.4ZM228.6,25.9h8c3,0,5.7,1.4,5.7,4.9s-1.4,4.2-6.3,4.2h-7.4v-9.1ZM228.6,51.4h9.9c3.7,0,6.1.8,6.1,4.6s-1.4,5.4-6.9,5.4h-9.1v-10Z" fill="#fff" fill-rule="evenodd" stroke-width="0"/>
    <path d="M204.8,77.8h43c15.1,0,21.3-7.8,21.3-17.8s-6-16.4-14.2-16.9v-.2c8-1.6,11.8-8.2,11.8-15.5,0-12.9-9.2-17.9-18.7-17.9h-43.3v68.4ZM228.6,25.9h8c3,0,5.7,1.4,5.7,4.9s-1.4,4.2-6.3,4.2h-7.4v-9.1ZM228.6,51.4h9.9c3.7,0,6.1.8,6.1,4.6s-1.4,5.4-6.9,5.4h-9.1v-10Z" fill="none" stroke="#000" stroke-linecap="round" stroke-linejoin="round" stroke-width=".2"/>
    <path d="M204.8,77.8h43c15.1,0,21.3-7.8,21.3-17.8s-6-16.4-14.2-16.9v-.2c8-1.6,11.8-8.2,11.8-15.5,0-12.9-9.2-17.9-18.7-17.9h-43.3v68.4ZM228.6,25.9h8c3,0,5.7,1.4,5.7,4.9s-1.4,4.2-6.3,4.2h-7.4v-9.1ZM228.6,51.4h9.9c3.7,0,6.1.8,6.1,4.6s-1.4,5.4-6.9,5.4h-9.1v-10Z" fill="none" stroke="#000" stroke-linecap="round" stroke-linejoin="round" stroke-width=".2"/>
    <rect x="276.5" y="2.6" width="232.6" height="82" fill="#fff" stroke-width="0"/>
    <rect x="276.5" y="2.6" width="232.6" height="82" fill="#fff" stroke-width="0"/>
    <path d="M330.5,10.9c-6.5-1.3-13.1-2.2-21.4-2.2-15.7,0-23.8,8.6-23.8,19.3,0,15.6,23.3,24.6,23.3,30.4s-5.1,2.8-7.3,2.8c-5.8,0-11.9-1.7-17.4-4.1l3,20.6c6.9.7,15.3,2,20.7,2,20.8,0,26.8-10.8,26.8-20.6,0-15.2-23.3-22.5-23.3-28.7s5.1-3.2,7.1-3.2c4.9,0,10.3,1.4,15,3.4l-2.6-19.8" fill="#000" fill-rule="evenodd" stroke-width="0"/>
    <path d="M330.5,10.9c-6.5-1.3-13.1-2.2-21.4-2.2-15.7,0-23.8,8.6-23.8,19.3,0,15.6,23.3,24.6,23.3,30.4s-5.1,2.8-7.3,2.8c-5.8,0-11.9-1.7-17.4-4.1l3,20.6c6.9.7,15.3,2,20.7,2,20.8,0,26.8-10.8,26.8-20.6,0-15.2-23.3-22.5-23.3-28.7s5.1-3.2,7.1-3.2c4.9,0,10.3,1.4,15,3.4l-2.6-19.8Z" fill="#000" fill-rule="evenodd" stroke-width="0"/>
    <path d="M330.5,10.9c-6.5-1.3-13.1-2.2-21.4-2.2-15.7,0-23.8,8.6-23.8,19.3,0,15.6,23.3,24.6,23.3,30.4s-5.1,2.8-7.3,2.8c-5.8,0-11.9-1.7-17.4-4.1l3,20.6c6.9.7,15.3,2,20.7,2,20.8,0,26.8-10.8,26.8-20.6,0-15.2-23.3-22.5-23.3-28.7s5.1-3.2,7.1-3.2c4.9,0,10.3,1.4,15,3.4l-2.6-19.8Z" fill="none" stroke="#000" stroke-linecap="round" stroke-linejoin="round" stroke-width=".2"/>
    <path d="M330.5,10.9c-6.5-1.3-13.1-2.2-21.4-2.2-15.7,0-23.8,8.6-23.8,19.3,0,15.6,23.3,24.6,23.3,30.4s-5.1,2.8-7.3,2.8c-5.8,0-11.9-1.7-17.4-4.1l3,20.6c6.9.7,15.3,2,20.7,2,20.8,0,26.8-10.8,26.8-20.6,0-15.2-23.3-22.5-23.3-28.7s5.1-3.2,7.1-3.2c4.9,0,10.3,1.4,15,3.4l-2.6-19.8Z" fill="none" stroke="#000" stroke-linecap="round" stroke-linejoin="round" stroke-width=".2"/>
    <rect x="337.8" y="10.1" width="25.8" height="68.4" fill="#000" stroke-width="0"/>
    <rect x="337.8" y="10.1" width="25.8" height="68.4" fill="#000" stroke-width="0"/>
    <rect x="337.8" y="10.1" width="25.8" height="68.4" fill="none" stroke="#000" stroke-linecap="round" stroke-linejoin="round" stroke-width=".2"/>
    <rect x="337.8" y="10.1" width="25.8" height="68.4" fill="none" stroke="#000" stroke-linecap="round" stroke-linejoin="round" stroke-width=".2"/>
    <path d="M393,27.7h4.6c8.9,0,13.5,3.4,13.5,16.9s-3,15.6-13.9,15.6h-4.2V27.7M368.5,78.1h37.2c26.2,0,31.2-21.3,31.2-33.4,0-24.4-14.3-34.9-28.6-34.9h-39.7v68.4Z" fill="#000" fill-rule="evenodd" stroke-width="0"/>
    <path d="M393,27.7h4.6c8.9,0,13.5,3.4,13.5,16.9s-3,15.6-13.9,15.6h-4.2V27.7s0,0,0,0ZM368.5,78.1h37.2c26.2,0,31.2-21.3,31.2-33.4,0-24.4-14.3-34.9-28.6-34.9h-39.7v68.4Z" fill="#000" fill-rule="evenodd" stroke-width="0"/>
    <path d="M393,27.7h4.6c8.9,0,13.5,3.4,13.5,16.9s-3,15.6-13.9,15.6h-4.2V27.7s0,0,0,0ZM368.5,78.1h37.2c26.2,0,31.2-21.3,31.2-33.4,0-24.4-14.3-34.9-28.6-34.9h-39.7v68.4Z" fill="none" stroke="#000" stroke-linecap="round" stroke-linejoin="round" stroke-width=".2"/>
    <path d="M393,27.7h4.6c8.9,0,13.5,3.4,13.5,16.9s-3,15.6-13.9,15.6h-4.2V27.7s0,0,0,0ZM368.5,78.1h37.2c26.2,0,31.2-21.3,31.2-33.4,0-24.4-14.3-34.9-28.6-34.9h-39.7v68.4Z" fill="none" stroke="#000" stroke-linecap="round" stroke-linejoin="round" stroke-width=".2"/>
    <polyline points="498.3 59.9 466 59.9 466 52.6 492.5 52.6 492.5 34.7 466 34.7 466 27.4 498.3 27.4 498.3 9.5 440.3 9.5 440.3 77.8 498.3 77.8 498.3 59.9" fill="#000" fill-rule="evenodd" stroke-width="0"/>
    <polygon points="498.3 59.9 466 59.9 466 52.6 492.5 52.6 492.5 34.7 466 34.7 466 27.4 498.3 27.4 498.3 9.5 440.3 9.5 440.3 77.8 498.3 77.8 498.3 59.9" fill="#000" fill-rule="evenodd" stroke-width="0"/>
    <polygon points="498.3 59.9 466 59.9 466 52.6 492.5 52.6 492.5 34.7 466 34.7 466 27.4 498.3 27.4 498.3 9.5 440.3 9.5 440.3 77.8 498.3 77.8 498.3 59.9" fill="none" stroke="#000" stroke-linecap="round" stroke-linejoin="round" stroke-width=".2"/>
    <polygon points="498.3 59.9 466 59.9 466 52.6 492.5 52.6 492.5 34.7 466 34.7 466 27.4 498.3 27.4 498.3 9.5 440.3 9.5 440.3 77.8 498.3 77.8 498.3 59.9" fill="none" stroke="#000" stroke-linecap="round" stroke-linejoin="round" stroke-width=".2"/>
  </g>
  <g>
    <path d="M52.8,328.6v-43.8l135.2-54.2v46l-86,29.8,1.5-2.2v5.2l-1.5-2.2,86,29.8v45.8l-135.2-54Z" fill="#231f20" stroke-width="0"/>
    <path d="M307.2,187.3l-60,223h-42.5l60-223h42.5Z" fill="#231f20" stroke-width="0"/>
    <path d="M459,328.6l-135.2,54v-45.8l86.2-29.8-1.5,2.2v-5.2l1.5,2.2-86.2-29.8v-46l135.2,54.2v43.8Z" fill="#231f20" stroke-width="0"/>
  </g>
</svg>