<?xml version="1.0" standalone="no"?>
<!DOCTYPE svg PUBLIC "-//W3C//DTD SVG 20010904//EN"
 "http://www.w3.org/TR/2001/REC-SVG-20010904/DTD/svg10.dtd">
<svg version="1.0" xmlns="http://www.w3.org/2000/svg"
 width="700.000000pt" height="700.000000pt" viewBox="0 0 700.000000 700.000000"
 preserveAspectRatio="xMidYMid meet">
<metadata>
Created by potrace 1.14, written by Peter Selinger 2001-2017
</metadata>
<g transform="translate(0.000000,700.000000) scale(0.100000,-0.100000)"
fill="#000000" stroke="none">
<path d="M0 6405 c0 -560 1 -595 18 -595 25 -1 6878 -1 6935 0 l47 0 0 595 0
595 -3500 0 -3500 0 0 -595z"/>
<path d="M3616 4427 c-2 -6 -11 -39 -20 -72 -9 -33 -27 -100 -40 -150 -14 -49
-50 -182 -80 -295 -30 -113 -60 -225 -67 -250 -7 -25 -14 -49 -15 -55 -2 -5
-5 -19 -8 -30 -2 -11 -27 -103 -55 -205 -27 -102 -82 -304 -121 -450 -39 -146
-80 -299 -92 -340 -11 -41 -21 -82 -23 -90 -5 -22 -81 -300 -110 -407 -15 -51
-28 -101 -30 -110 -2 -10 -14 -54 -26 -98 -20 -76 -40 -150 -94 -350 -14 -49
-27 -100 -31 -112 l-6 -23 290 0 c268 0 291 1 296 18 3 9 44 161 91 337 48
176 100 370 116 430 38 139 33 122 64 240 14 55 32 123 40 150 14 48 73 265
80 295 2 8 24 89 49 180 38 142 111 414 176 655 19 70 103 384 141 525 11 41
27 100 35 130 8 30 17 63 19 72 3 16 -19 17 -286 17 -222 1 -291 -2 -293 -12z"/>
<path d="M1954 3600 c-336 -135 -629 -252 -650 -261 -22 -9 -161 -65 -310
-125 l-271 -108 1 -299 c1 -256 3 -301 16 -307 30 -15 69 -31 345 -140 154
-61 289 -115 300 -120 20 -9 376 -151 465 -184 25 -10 61 -24 80 -33 19 -8 44
-19 55 -23 330 -133 576 -230 580 -230 3 0 5 139 5 310 l0 310 -32 13 c-18 8
-109 39 -203 71 -93 32 -179 61 -190 66 -11 5 -49 18 -85 30 -36 12 -162 56
-280 97 -118 41 -235 81 -260 89 -25 8 -52 18 -60 21 -8 3 -18 6 -22 5 -4 -1
-12 7 -18 18 -9 16 -6 20 22 29 18 5 139 46 268 91 129 45 267 93 305 106 39
12 149 50 245 84 96 34 202 71 235 82 33 11 63 24 68 27 4 4 6 146 5 317 l-3
309 -611 -245z"/>
<path d="M4429 3842 c0 -4 -1 -145 -2 -314 -2 -265 0 -308 13 -312 8 -2 74
-24 145 -49 72 -25 247 -86 390 -135 143 -49 294 -102 335 -116 41 -15 119
-41 172 -59 54 -18 100 -38 103 -45 5 -15 1 -17 -205 -88 -85 -29 -254 -87
-375 -129 -437 -151 -481 -166 -529 -183 l-50 -17 0 -312 c-1 -172 0 -313 2
-313 2 0 83 32 180 71 97 40 220 89 272 109 185 72 235 92 265 105 17 7 185
75 375 150 190 75 354 141 365 146 11 5 103 42 205 83 l185 74 0 301 0 300
-110 44 c-60 25 -360 144 -665 267 -305 122 -568 228 -585 235 -16 7 -106 43
-200 80 -93 37 -196 78 -227 91 -32 12 -58 19 -59 16z"/>
</g>
</svg>
